<mxfile host="65bd71144e">
    <diagram id="6Aox1Gahna3iDmdaMvxu" name="Page-1">
        <mxGraphModel dx="2349" dy="1494" grid="0" gridSize="10" guides="0" tooltips="1" connect="1" arrows="1" fold="1" page="0" pageScale="1" pageWidth="827" pageHeight="1169" math="0" shadow="0">
            <root>
                <mxCell id="0"/>
                <mxCell id="1" parent="0"/>
                <mxCell id="31" value="" style="endArrow=none;dashed=1;html=1;dashPattern=1 3;strokeWidth=2;fontFamily=Times New Roman;fontSize=44;" edge="1" parent="1">
                    <mxGeometry width="50" height="50" relative="1" as="geometry">
                        <mxPoint x="200" y="590" as="sourcePoint"/>
                        <mxPoint x="200" y="440" as="targetPoint"/>
                    </mxGeometry>
                </mxCell>
                <mxCell id="26" value="" style="endArrow=none;dashed=1;html=1;dashPattern=1 3;strokeWidth=2;fontFamily=Times New Roman;fontSize=44;" edge="1" parent="1">
                    <mxGeometry width="50" height="50" relative="1" as="geometry">
                        <mxPoint x="520" y="440" as="sourcePoint"/>
                        <mxPoint x="520" y="290" as="targetPoint"/>
                    </mxGeometry>
                </mxCell>
                <mxCell id="2" value="" style="endArrow=classic;html=1;endFill=1;strokeWidth=2;" edge="1" parent="1">
                    <mxGeometry width="50" height="50" relative="1" as="geometry">
                        <mxPoint x="120" y="440" as="sourcePoint"/>
                        <mxPoint x="600" y="440" as="targetPoint"/>
                    </mxGeometry>
                </mxCell>
                <mxCell id="3" value="" style="endArrow=classic;html=1;endFill=1;strokeWidth=2;" edge="1" parent="1">
                    <mxGeometry width="50" height="50" relative="1" as="geometry">
                        <mxPoint x="360" y="680" as="sourcePoint"/>
                        <mxPoint x="360" y="200" as="targetPoint"/>
                    </mxGeometry>
                </mxCell>
                <mxCell id="4" value="&lt;font style=&quot;font-size: 44px;&quot;&gt;V&lt;/font&gt;" style="text;html=1;strokeColor=none;fillColor=none;align=center;verticalAlign=middle;whiteSpace=wrap;rounded=0;fontFamily=Times New Roman;fontSize=44;" vertex="1" parent="1">
                    <mxGeometry x="600" y="420" width="40" height="40" as="geometry"/>
                </mxCell>
                <mxCell id="6" value="" style="endArrow=none;dashed=1;html=1;dashPattern=1 3;strokeWidth=2;fontFamily=Times New Roman;fontSize=16;" edge="1" parent="1">
                    <mxGeometry width="50" height="50" relative="1" as="geometry">
                        <mxPoint x="120" y="680" as="sourcePoint"/>
                        <mxPoint x="600" y="200" as="targetPoint"/>
                    </mxGeometry>
                </mxCell>
                <mxCell id="14" value="&lt;font style=&quot;font-size: 44px;&quot;&gt;I&lt;/font&gt;" style="text;html=1;strokeColor=none;fillColor=none;align=center;verticalAlign=middle;whiteSpace=wrap;rounded=0;fontFamily=Times New Roman;fontSize=44;" vertex="1" parent="1">
                    <mxGeometry x="340" y="160" width="40" height="40" as="geometry"/>
                </mxCell>
                <mxCell id="16" value="" style="curved=1;endArrow=none;html=1;fontFamily=Times New Roman;fontSize=24;strokeWidth=6;endFill=0;fillColor=#1ba1e2;strokeColor=#006EAF;" edge="1" parent="1">
                    <mxGeometry width="50" height="50" relative="1" as="geometry">
                        <mxPoint x="120" y="680" as="sourcePoint"/>
                        <mxPoint x="600" y="200" as="targetPoint"/>
                        <Array as="points">
                            <mxPoint x="190" y="610"/>
                            <mxPoint x="200" y="600"/>
                            <mxPoint x="200" y="590"/>
                            <mxPoint x="200" y="510"/>
                            <mxPoint x="200" y="460"/>
                            <mxPoint x="320" y="440"/>
                            <mxPoint x="400" y="440"/>
                            <mxPoint x="520" y="420"/>
                            <mxPoint x="520" y="380"/>
                            <mxPoint x="520" y="290"/>
                            <mxPoint x="520" y="280"/>
                            <mxPoint x="530" y="270"/>
                        </Array>
                    </mxGeometry>
                </mxCell>
                <mxCell id="17" value="" style="endArrow=none;html=1;fontFamily=Times New Roman;fontSize=24;strokeWidth=6;fillColor=#1ba1e2;strokeColor=#006EAF;" edge="1" parent="1">
                    <mxGeometry width="50" height="50" relative="1" as="geometry">
                        <mxPoint x="360" y="600" as="sourcePoint"/>
                        <mxPoint x="360" y="280" as="targetPoint"/>
                    </mxGeometry>
                </mxCell>
                <mxCell id="18" value="" style="endArrow=classic;html=1;endFill=1;strokeWidth=2;" edge="1" parent="1">
                    <mxGeometry width="50" height="50" relative="1" as="geometry">
                        <mxPoint x="120" y="1080" as="sourcePoint"/>
                        <mxPoint x="600" y="1080" as="targetPoint"/>
                    </mxGeometry>
                </mxCell>
                <mxCell id="19" value="" style="endArrow=classic;html=1;endFill=1;strokeWidth=2;" edge="1" parent="1">
                    <mxGeometry width="50" height="50" relative="1" as="geometry">
                        <mxPoint x="360" y="1320" as="sourcePoint"/>
                        <mxPoint x="360" y="840" as="targetPoint"/>
                    </mxGeometry>
                </mxCell>
                <mxCell id="20" value="&lt;font style=&quot;font-size: 44px;&quot;&gt;V&lt;/font&gt;" style="text;html=1;strokeColor=none;fillColor=none;align=center;verticalAlign=middle;whiteSpace=wrap;rounded=0;fontFamily=Times New Roman;fontSize=44;" vertex="1" parent="1">
                    <mxGeometry x="610" y="1060" width="40" height="40" as="geometry"/>
                </mxCell>
                <mxCell id="21" value="" style="endArrow=none;dashed=1;html=1;dashPattern=1 3;strokeWidth=2;fontFamily=Times New Roman;fontSize=16;" edge="1" parent="1">
                    <mxGeometry width="50" height="50" relative="1" as="geometry">
                        <mxPoint x="120" y="1320" as="sourcePoint"/>
                        <mxPoint x="600" y="840" as="targetPoint"/>
                    </mxGeometry>
                </mxCell>
                <mxCell id="22" value="&lt;font style=&quot;font-size: 44px;&quot;&gt;I&lt;/font&gt;" style="text;html=1;strokeColor=none;fillColor=none;align=center;verticalAlign=middle;whiteSpace=wrap;rounded=0;fontFamily=Times New Roman;fontSize=44;" vertex="1" parent="1">
                    <mxGeometry x="340" y="800" width="40" height="40" as="geometry"/>
                </mxCell>
                <mxCell id="25" value="" style="curved=1;endArrow=none;html=1;fontFamily=Times New Roman;fontSize=24;strokeWidth=6;fillColor=#1ba1e2;strokeColor=#006EAF;endFill=0;" edge="1" parent="1">
                    <mxGeometry width="50" height="50" relative="1" as="geometry">
                        <mxPoint x="120" y="1320" as="sourcePoint"/>
                        <mxPoint x="600" y="840" as="targetPoint"/>
                        <Array as="points">
                            <mxPoint x="190" y="1250"/>
                            <mxPoint x="200" y="1240"/>
                            <mxPoint x="210" y="1240"/>
                            <mxPoint x="350" y="1240"/>
                            <mxPoint x="360" y="1240"/>
                            <mxPoint x="360" y="1230"/>
                            <mxPoint x="360" y="1080"/>
                            <mxPoint x="360" y="930"/>
                            <mxPoint x="360" y="920"/>
                            <mxPoint x="370" y="920"/>
                            <mxPoint x="510" y="920"/>
                            <mxPoint x="520" y="920"/>
                            <mxPoint x="530" y="910"/>
                        </Array>
                    </mxGeometry>
                </mxCell>
                <mxCell id="27" value="&lt;font style=&quot;font-size: 44px ; line-height: 1&quot;&gt;V&lt;sub&gt;g&lt;/sub&gt;&lt;/font&gt;" style="text;html=1;strokeColor=none;fillColor=none;align=center;verticalAlign=middle;whiteSpace=wrap;rounded=0;fontFamily=Times New Roman;fontSize=44;fontStyle=0" vertex="1" parent="1">
                    <mxGeometry x="480" y="450" width="80" height="60" as="geometry"/>
                </mxCell>
                <mxCell id="28" value="" style="endArrow=none;dashed=1;html=1;dashPattern=1 3;strokeWidth=2;fontFamily=Times New Roman;fontSize=44;" edge="1" parent="1">
                    <mxGeometry width="50" height="50" relative="1" as="geometry">
                        <mxPoint x="360" y="280" as="sourcePoint"/>
                        <mxPoint x="520" y="280" as="targetPoint"/>
                    </mxGeometry>
                </mxCell>
                <mxCell id="29" value="" style="endArrow=none;dashed=1;html=1;dashPattern=1 3;strokeWidth=2;fontFamily=Times New Roman;fontSize=44;" edge="1" parent="1">
                    <mxGeometry width="50" height="50" relative="1" as="geometry">
                        <mxPoint x="200" y="600" as="sourcePoint"/>
                        <mxPoint x="360" y="600" as="targetPoint"/>
                    </mxGeometry>
                </mxCell>
                <mxCell id="30" value="&lt;font style=&quot;font-size: 44px ; line-height: 1&quot;&gt;-V&lt;sub&gt;g&lt;/sub&gt;&lt;/font&gt;" style="text;html=1;strokeColor=none;fillColor=none;align=center;verticalAlign=middle;whiteSpace=wrap;rounded=0;fontFamily=Times New Roman;fontSize=44;fontStyle=0" vertex="1" parent="1">
                    <mxGeometry x="160" y="370" width="80" height="60" as="geometry"/>
                </mxCell>
                <mxCell id="32" value="I&lt;sub&gt;c&lt;/sub&gt;" style="text;html=1;strokeColor=none;fillColor=none;align=center;verticalAlign=middle;whiteSpace=wrap;rounded=0;fontFamily=Times New Roman;fontSize=44;fontStyle=0" vertex="1" parent="1">
                    <mxGeometry x="280" y="250" width="80" height="60" as="geometry"/>
                </mxCell>
                <mxCell id="34" value="-I&lt;sub&gt;c&lt;/sub&gt;" style="text;html=1;strokeColor=none;fillColor=none;align=center;verticalAlign=middle;whiteSpace=wrap;rounded=0;fontFamily=Times New Roman;fontSize=44;fontStyle=0" vertex="1" parent="1">
                    <mxGeometry x="360" y="570" width="80" height="60" as="geometry"/>
                </mxCell>
                <mxCell id="35" value="I&lt;sub&gt;c&lt;/sub&gt;" style="text;html=1;strokeColor=none;fillColor=none;align=center;verticalAlign=middle;whiteSpace=wrap;rounded=0;fontFamily=Times New Roman;fontSize=44;fontStyle=0" vertex="1" parent="1">
                    <mxGeometry x="280" y="890" width="80" height="60" as="geometry"/>
                </mxCell>
                <mxCell id="36" value="-I&lt;sub&gt;c&lt;/sub&gt;" style="text;html=1;strokeColor=none;fillColor=none;align=center;verticalAlign=middle;whiteSpace=wrap;rounded=0;fontFamily=Times New Roman;fontSize=44;fontStyle=0" vertex="1" parent="1">
                    <mxGeometry x="360" y="1210" width="80" height="60" as="geometry"/>
                </mxCell>
            </root>
        </mxGraphModel>
    </diagram>
</mxfile>